<svg width="40" height="40" viewBox="0 0 40 40" fill="none" xmlns="http://www.w3.org/2000/svg">
<g id="arrow-right">
<path id="Vector" d="M25.2655 20L12.3322 33.9552C12.2257 34.0676 12.1415 34.2011 12.0845 34.348C12.0275 34.4948 11.9988 34.6521 12 34.8107C12.0013 34.9692 12.0325 35.126 12.0918 35.2718C12.1511 35.4176 12.2374 35.5497 12.3457 35.6602C12.4539 35.7708 12.582 35.8578 12.7224 35.9161C12.8629 35.9743 13.013 36.0028 13.164 35.9998C13.315 35.9968 13.4639 35.9623 13.6022 35.8985C13.7404 35.8346 13.8653 35.7426 13.9694 35.6278L27.6765 20.8363C27.8839 20.6124 28 20.3124 28 20C28 19.6876 27.8839 19.3876 27.6765 19.1637L13.9694 4.37221C13.8653 4.25738 13.7404 4.16537 13.6022 4.10152C13.4639 4.03767 13.315 4.00324 13.164 4.00022C13.013 3.9972 12.8629 4.02565 12.7224 4.08393C12.582 4.14222 12.4539 4.22916 12.3457 4.33975C12.2374 4.45034 12.1511 4.58237 12.0918 4.7282C12.0325 4.87404 12.0013 5.03077 12 5.18934C11.9988 5.34792 12.0275 5.50518 12.0845 5.65202C12.1415 5.79887 12.2257 5.93239 12.3322 6.04485L25.2655 20Z" fill="currentColor"/>
</g>
</svg>
