<svg width="24" height="24" viewBox="0 0 24 24" fill="none" xmlns="http://www.w3.org/2000/svg">
<path d="M12.0534 5.50684L6.9801 10.5802C6.91031 10.6399 6.85363 10.7135 6.81361 10.7962C6.7736 10.8789 6.75111 10.969 6.74757 11.0608C6.74402 11.1526 6.75949 11.2442 6.79301 11.3297C6.82652 11.4153 6.87736 11.493 6.94233 11.5579C7.0073 11.6229 7.085 11.6737 7.17055 11.7073C7.2561 11.7408 7.34765 11.7562 7.43947 11.7527C7.53128 11.7492 7.62137 11.7267 7.70408 11.6867C7.78679 11.6466 7.86033 11.59 7.9201 11.5202L11.3334 8.12017L11.3334 18.1202C11.3334 18.297 11.4037 18.4666 11.5287 18.5916C11.6537 18.7166 11.8233 18.7868 12.0001 18.7868C12.1769 18.7868 12.3465 18.7166 12.4715 18.5916C12.5965 18.4666 12.6668 18.297 12.6668 18.1202L12.6668 8.00017L16.1868 11.5202C16.2465 11.59 16.3201 11.6466 16.4028 11.6867C16.4855 11.7267 16.5756 11.7492 16.6674 11.7527C16.7592 11.7562 16.8508 11.7408 16.9363 11.7073C17.0219 11.6737 17.0996 11.6229 17.1645 11.5579C17.2295 11.493 17.2803 11.4153 17.3139 11.3297C17.3474 11.2442 17.3628 11.1526 17.3593 11.0608C17.3558 10.969 17.3333 10.8789 17.2932 10.7962C17.2532 10.7135 17.1966 10.6399 17.1268 10.5802L12.0534 5.50684Z" fill="#B25906"/>
</svg>
