<svg width="12" height="14" viewBox="0 0 12 14" fill="none" xmlns="http://www.w3.org/2000/svg">
<path d="M6.05246 0.679688L0.979122 5.75302C0.909334 5.81279 0.852653 5.88633 0.812638 5.96904C0.772622 6.05175 0.750136 6.14184 0.74659 6.23365C0.743043 6.32546 0.758514 6.41702 0.79203 6.50257C0.825547 6.58812 0.876385 6.66582 0.941355 6.73079C1.00632 6.79576 1.08402 6.8466 1.16957 6.88011C1.25512 6.91363 1.34668 6.9291 1.43849 6.92555C1.5303 6.92201 1.62039 6.89952 1.7031 6.8595C1.78581 6.81949 1.85936 6.76281 1.91912 6.69302L5.33246 3.29302L5.33245 13.293C5.33245 13.4698 5.40269 13.6394 5.52771 13.7644C5.65274 13.8894 5.82231 13.9597 5.99912 13.9597C6.17593 13.9597 6.3455 13.8895 6.47052 13.7644C6.59555 13.6394 6.66579 13.4698 6.66579 13.293L6.66579 3.17302L10.1858 6.69302C10.2456 6.76281 10.3191 6.81949 10.4018 6.85951C10.4845 6.89952 10.5746 6.92201 10.6664 6.92555C10.7582 6.9291 10.8498 6.91363 10.9353 6.88011C11.0209 6.8466 11.0986 6.79576 11.1636 6.73079C11.2285 6.66582 11.2794 6.58812 11.3129 6.50257C11.3464 6.41702 11.3619 6.32547 11.3583 6.23365C11.3548 6.14184 11.3323 6.05175 11.2923 5.96904C11.2523 5.88633 11.1956 5.81279 11.1258 5.75302L6.05246 0.679688Z" fill="#4C7B63"/>
</svg>
