<svg width="24" height="25" viewBox="0 0 24 25" fill="none" xmlns="http://www.w3.org/2000/svg">
<path d="M11.9466 18.5293L17.0199 13.456C17.0897 13.3962 17.1464 13.3227 17.1864 13.2399C17.2264 13.1572 17.2489 13.0671 17.2524 12.9753C17.256 12.8835 17.2405 12.792 17.207 12.7064C17.1735 12.6209 17.1226 12.5432 17.0577 12.4782C16.9927 12.4132 16.915 12.3624 16.8294 12.3289C16.7439 12.2954 16.6523 12.2799 16.5605 12.2834C16.4687 12.287 16.3786 12.3095 16.2959 12.3495C16.2132 12.3895 16.1397 12.4462 16.0799 12.516L12.6666 15.916L12.6666 5.91596C12.6666 5.73915 12.5963 5.56958 12.4713 5.44456C12.3463 5.31954 12.1767 5.2493 11.9999 5.2493C11.8231 5.2493 11.6535 5.31954 11.5285 5.44456C11.4035 5.56958 11.3332 5.73915 11.3332 5.91596L11.3332 16.036L7.81323 12.516C7.75347 12.4462 7.67992 12.3895 7.59722 12.3495C7.5145 12.3095 7.42442 12.287 7.3326 12.2834C7.24079 12.2799 7.14924 12.2954 7.06369 12.3289C6.97814 12.3624 6.90044 12.4132 6.83547 12.4782C6.7705 12.5432 6.71966 12.6209 6.68614 12.7064C6.65263 12.792 6.63716 12.8835 6.6407 12.9753C6.64425 13.0671 6.66674 13.1572 6.70675 13.2399C6.74677 13.3227 6.80345 13.3962 6.87324 13.456L11.9466 18.5293Z" fill="currentColor"/>
</svg>
