<svg width="24" height="24" viewBox="0 0 24 24" fill="none" xmlns="http://www.w3.org/2000/svg">
<path d="M12 14.6328L5.02242 8.16609C4.96619 8.11285 4.89943 8.07076 4.82601 8.04225C4.75259 8.01375 4.67396 7.99939 4.59467 8.00002C4.51539 8.00065 4.43702 8.01624 4.3641 8.04591C4.29119 8.07557 4.22517 8.11871 4.16988 8.17284C4.11458 8.22696 4.07111 8.29099 4.04197 8.36122C4.01283 8.43146 3.9986 8.5065 4.00011 8.582C4.00162 8.6575 4.01883 8.73197 4.05076 8.8011C4.08269 8.87022 4.12869 8.93263 4.18611 8.98471L11.5818 15.8382C11.6938 15.942 11.8438 16 12 16C12.1562 16 12.3062 15.942 12.4182 15.8382L19.8139 8.98471C19.8713 8.93263 19.9173 8.87022 19.9492 8.8011C19.9812 8.73197 19.9984 8.6575 19.9999 8.582C20.0014 8.5065 19.9872 8.43146 19.958 8.36122C19.9289 8.29099 19.8854 8.22696 19.8301 8.17284C19.7748 8.11871 19.7088 8.07557 19.6359 8.04591C19.563 8.01624 19.4846 8.00065 19.4053 8.00002C19.326 7.99939 19.2474 8.01375 19.174 8.04225C19.1006 8.07076 19.0338 8.11285 18.9776 8.16609L12 14.6328Z" fill="currentColor"/>
</svg>
