<svg xmlns="http://www.w3.org/2000/svg" width="187" height="22" viewBox="0 0 187 22" fill="none">
  <path d="M11.4235 16.8253H8.10736V10.6048C8.10736 9.28874 8.03655 8.43944 7.89494 8.05687C7.75333 7.66665 7.52124 7.36443 7.19867 7.15019C6.88398 6.93595 6.50241 6.82883 6.05397 6.82883C5.47965 6.82883 4.96433 6.98186 4.50802 7.28791C4.05171 7.59397 3.73702 7.99949 3.56393 8.50448C3.39872 9.00947 3.31611 9.94293 3.31611 11.3049V16.8253H0V4.63672H3.08009V6.42714C4.17366 5.04989 5.55045 4.36127 7.21048 4.36127C7.94214 4.36127 8.61087 4.49134 9.21666 4.75149C9.82245 5.00398 10.2788 5.32917 10.5856 5.72704C10.9003 6.12491 11.1166 6.57634 11.2347 7.08133C11.3605 7.58632 11.4235 8.30937 11.4235 9.25048V16.8253Z" fill="currentColor"/>
  <path d="M14.0674 4.63672H17.1239V6.30089C18.2174 5.00781 19.5195 4.36127 21.03 4.36127C21.8325 4.36127 22.5288 4.52195 23.1188 4.84331C23.7089 5.16466 24.1927 5.65052 24.5704 6.30089C25.1211 5.65052 25.7151 5.16466 26.3523 4.84331C26.9896 4.52195 27.6701 4.36127 28.3939 4.36127C29.3144 4.36127 30.0933 4.5449 30.7306 4.91217C31.3678 5.27178 31.8438 5.80355 32.1585 6.50747C32.3866 7.02777 32.5007 7.86942 32.5007 9.03242V16.8253H29.1846V9.85877C29.1846 8.64985 29.0705 7.86942 28.8424 7.51745C28.5355 7.05837 28.0635 6.82883 27.4262 6.82883C26.9621 6.82883 26.5254 6.96656 26.1163 7.242C25.7072 7.51745 25.4122 7.92298 25.2312 8.45857C25.0503 8.98651 24.9598 9.82434 24.9598 10.972V16.8253H21.6437V10.1457C21.6437 8.95973 21.5847 8.1946 21.4667 7.85029C21.3487 7.50598 21.1638 7.24966 20.912 7.08133C20.6681 6.913 20.3338 6.82883 19.9089 6.82883C19.3976 6.82883 18.9373 6.96273 18.5282 7.23053C18.1191 7.49832 17.8241 7.88472 17.6431 8.38971C17.47 8.8947 17.3835 9.73252 17.3835 10.9032V16.8253H14.0674V4.63672Z" fill="currentColor"/>
  <path d="M34.9558 12.3378V9.11276H41.47V12.3378H34.9558Z" fill="currentColor"/>
  <path d="M42.6506 4.63672H45.7071V6.30089C46.8007 5.00781 48.1027 4.36127 49.6133 4.36127C50.4157 4.36127 51.112 4.52195 51.7021 4.84331C52.2921 5.16466 52.776 5.65052 53.1536 6.30089C53.7043 5.65052 54.2983 5.16466 54.9356 4.84331C55.5728 4.52195 56.2534 4.36127 56.9772 4.36127C57.8976 4.36127 58.6765 4.5449 59.3138 4.91217C59.951 5.27178 60.427 5.80355 60.7417 6.50747C60.9699 7.02777 61.0839 7.86942 61.0839 9.03242V16.8253H57.7678V9.85877C57.7678 8.64985 57.6538 7.86942 57.4256 7.51745C57.1188 7.05837 56.6467 6.82883 56.0095 6.82883C55.5453 6.82883 55.1087 6.96656 54.6995 7.242C54.2904 7.51745 53.9954 7.92298 53.8145 8.45857C53.6335 8.98651 53.543 9.82434 53.543 10.972V16.8253H50.2269V10.1457C50.2269 8.95973 50.1679 8.1946 50.0499 7.85029C49.9319 7.50598 49.747 7.24966 49.4953 7.08133C49.2514 6.913 48.917 6.82883 48.4922 6.82883C47.9808 6.82883 47.5205 6.96273 47.1114 7.23053C46.7023 7.49832 46.4073 7.88472 46.2264 8.38971C46.0533 8.8947 45.9667 9.73252 45.9667 10.9032V16.8253H42.6506V4.63672Z" fill="currentColor"/>
  <path d="M66.3949 8.35528L63.3856 7.82733C63.7239 6.64902 64.3061 5.77677 65.1322 5.21057C65.9583 4.64437 67.1856 4.36127 68.8141 4.36127C70.2932 4.36127 71.3947 4.53343 72.1185 4.87774C72.8423 5.2144 73.3497 5.6467 73.6408 6.17464C73.9398 6.69493 74.0892 7.65518 74.0892 9.05538L74.0538 12.8198C74.0538 13.891 74.105 14.6829 74.2072 15.1956C74.3174 15.7006 74.518 16.2438 74.8091 16.8253H71.5284C71.4419 16.6111 71.3356 16.2936 71.2098 15.8727C71.1547 15.6814 71.1154 15.5552 71.0918 15.494C70.5253 16.0296 69.9195 16.4313 69.2744 16.6991C68.6293 16.9669 67.9409 17.1008 67.2092 17.1008C65.9189 17.1008 64.9001 16.7603 64.1527 16.0793C63.4132 15.3983 63.0434 14.5376 63.0434 13.497C63.0434 12.8084 63.2126 12.1963 63.5508 11.6607C63.8891 11.1174 64.3612 10.7042 64.967 10.4211C65.5806 10.1304 66.4618 9.8779 67.6104 9.66366C69.1603 9.38056 70.2342 9.11659 70.8321 8.87174V8.55039C70.8321 7.93063 70.6748 7.49067 70.3601 7.23053C70.0454 6.96273 69.4514 6.82883 68.5781 6.82883C67.9881 6.82883 67.5278 6.9436 67.1974 7.17314C66.867 7.39503 66.5995 7.78908 66.3949 8.35528ZM70.8321 10.972C70.4073 11.1098 69.7346 11.2743 68.8141 11.4656C67.8937 11.6568 67.2918 11.8443 67.0086 12.0279C66.5759 12.3263 66.3595 12.7051 66.3595 13.1642C66.3595 13.6156 66.5326 14.0058 66.8788 14.3348C67.2249 14.6638 67.6655 14.8283 68.2005 14.8283C68.7984 14.8283 69.3688 14.637 69.9116 14.2545C70.3129 13.9637 70.5764 13.6079 70.7023 13.1871C70.7889 12.9117 70.8321 12.3875 70.8321 11.6148V10.972Z" fill="currentColor"/>
  <path d="M75.7183 13.3478L79.0462 12.8543C79.1878 13.4817 79.4749 13.9599 79.9077 14.2889C80.3404 14.6103 80.9461 14.7709 81.725 14.7709C82.5826 14.7709 83.2277 14.6179 83.6604 14.3119C83.9515 14.0976 84.097 13.8107 84.097 13.4511C84.097 13.2062 84.0184 13.0035 83.861 12.8428C83.6958 12.6898 83.326 12.5482 82.7517 12.4181C80.0768 11.8443 78.3814 11.3202 77.6654 10.8458C76.6741 10.1878 76.1785 9.27344 76.1785 8.10278C76.1785 7.0469 76.6073 6.15934 77.4648 5.44011C78.3224 4.72088 79.652 4.36127 81.4536 4.36127C83.1687 4.36127 84.4432 4.63289 85.2772 5.17614C86.1111 5.71939 86.6854 6.52278 87.0001 7.58632L83.8728 8.14869C83.7391 7.67431 83.4834 7.31087 83.1058 7.05837C82.736 6.80588 82.2049 6.67963 81.5126 6.67963C80.6393 6.67963 80.0139 6.79823 79.6362 7.03542C79.3845 7.20375 79.2586 7.42181 79.2586 7.68961C79.2586 7.91915 79.3687 8.11426 79.589 8.27494C79.888 8.48917 80.9186 8.7914 82.6809 9.18162C84.4511 9.57184 85.6863 10.0501 86.3865 10.6163C87.0788 11.1901 87.425 11.9897 87.425 13.0149C87.425 14.132 86.945 15.0923 85.9852 15.8957C85.0254 16.6991 83.6053 17.1008 81.725 17.1008C80.0178 17.1008 78.6646 16.7641 77.6654 16.0908C76.6741 15.4175 76.0251 14.5031 75.7183 13.3478Z" fill="currentColor"/>
  <path d="M88.6881 13.3478L92.0161 12.8543C92.1577 13.4817 92.4448 13.9599 92.8775 14.2889C93.3102 14.6103 93.916 14.7709 94.6949 14.7709C95.5525 14.7709 96.1976 14.6179 96.6303 14.3119C96.9214 14.0976 97.0669 13.8107 97.0669 13.4511C97.0669 13.2062 96.9883 13.0035 96.8309 12.8428C96.6657 12.6898 96.2959 12.5482 95.7216 12.4181C93.0467 11.8443 91.3513 11.3202 90.6353 10.8458C89.644 10.1878 89.1484 9.27344 89.1484 8.10278C89.1484 7.0469 89.5772 6.15934 90.4347 5.44011C91.2923 4.72088 92.6218 4.36127 94.4235 4.36127C96.1386 4.36127 97.4131 4.63289 98.247 5.17614C99.081 5.71939 99.6553 6.52278 99.97 7.58632L96.8427 8.14869C96.709 7.67431 96.4533 7.31087 96.0756 7.05837C95.7059 6.80588 95.1748 6.67963 94.4825 6.67963C93.6092 6.67963 92.9837 6.79823 92.6061 7.03542C92.3544 7.20375 92.2285 7.42181 92.2285 7.68961C92.2285 7.91915 92.3386 8.11426 92.5589 8.27494C92.8579 8.48917 93.8885 8.7914 95.6508 9.18162C97.421 9.57184 98.6562 10.0501 99.3563 10.6163C100.049 11.1901 100.395 11.9897 100.395 13.0149C100.395 14.132 99.9149 15.0923 98.9551 15.8957C97.9953 16.6991 96.5752 17.1008 94.6949 17.1008C92.9877 17.1008 91.6345 16.7641 90.6353 16.0908C89.644 15.4175 88.995 14.5031 88.6881 13.3478Z" fill="currentColor"/>
  <path d="M105.305 8.35528L102.295 7.82733C102.634 6.64902 103.216 5.77677 104.042 5.21057C104.868 4.64437 106.095 4.36127 107.724 4.36127C109.203 4.36127 110.304 4.53343 111.028 4.87774C111.752 5.2144 112.259 5.6467 112.55 6.17464C112.849 6.69493 112.999 7.65518 112.999 9.05538L112.963 12.8198C112.963 13.891 113.015 14.6829 113.117 15.1956C113.227 15.7006 113.428 16.2438 113.719 16.8253H110.438C110.352 16.6111 110.245 16.2936 110.119 15.8727C110.064 15.6814 110.025 15.5552 110.001 15.494C109.435 16.0296 108.829 16.4313 108.184 16.6991C107.539 16.9669 106.851 17.1008 106.119 17.1008C104.829 17.1008 103.81 16.7603 103.062 16.0793C102.323 15.3983 101.953 14.5376 101.953 13.497C101.953 12.8084 102.122 12.1963 102.461 11.6607C102.799 11.1174 103.271 10.7042 103.877 10.4211C104.49 10.1304 105.371 9.8779 106.52 9.66366C108.07 9.38056 109.144 9.11659 109.742 8.87174V8.55039C109.742 7.93063 109.584 7.49067 109.27 7.23053C108.955 6.96273 108.361 6.82883 107.488 6.82883C106.898 6.82883 106.437 6.9436 106.107 7.17314C105.777 7.39503 105.509 7.78908 105.305 8.35528ZM109.742 10.972C109.317 11.1098 108.644 11.2743 107.724 11.4656C106.803 11.6568 106.201 11.8443 105.918 12.0279C105.486 12.3263 105.269 12.7051 105.269 13.1642C105.269 13.6156 105.442 14.0058 105.788 14.3348C106.135 14.6638 106.575 14.8283 107.11 14.8283C107.708 14.8283 108.278 14.637 108.821 14.2545C109.223 13.9637 109.486 13.6079 109.612 13.1871C109.699 12.9117 109.742 12.3875 109.742 11.6148V10.972Z" fill="currentColor"/>
  <path d="M115.489 17.6287L119.278 18.0763C119.34 18.5048 119.486 18.7994 119.714 18.9601C120.029 19.1896 120.525 19.3044 121.201 19.3044C122.067 19.3044 122.716 19.1781 123.148 18.9256C123.439 18.7573 123.66 18.4857 123.809 18.1108C123.911 17.843 123.963 17.3494 123.963 16.6302V14.8513C122.971 16.1673 121.72 16.8253 120.21 16.8253C118.526 16.8253 117.193 16.1329 116.209 14.748C115.438 13.6538 115.053 12.2919 115.053 10.6622C115.053 8.61925 115.556 7.05837 116.563 5.97953C117.578 4.90069 118.837 4.36127 120.34 4.36127C121.89 4.36127 123.168 5.02311 124.175 6.3468V4.63672H127.279V15.5743C127.279 17.0128 127.157 18.0878 126.913 18.7994C126.669 19.5109 126.327 20.0695 125.886 20.475C125.446 20.8805 124.856 21.1981 124.116 21.4276C123.384 21.6572 122.456 21.7719 121.331 21.7719C119.207 21.7719 117.7 21.4161 116.811 20.7046C115.922 20.0006 115.478 19.1054 115.478 18.0189C115.478 17.9118 115.482 17.7817 115.489 17.6287ZM118.451 10.4785C118.451 11.7716 118.707 12.7204 119.219 13.3248C119.738 13.9216 120.375 14.22 121.13 14.22C121.941 14.22 122.625 13.914 123.184 13.3019C123.742 12.6821 124.022 11.7678 124.022 10.5589C124.022 9.29639 123.754 8.3591 123.219 7.74699C122.684 7.13489 122.008 6.82883 121.189 6.82883C120.395 6.82883 119.738 7.13106 119.219 7.73552C118.707 8.33232 118.451 9.24666 118.451 10.4785Z" fill="currentColor"/>
  <path d="M137.346 12.9461L140.65 13.4855C140.225 14.6638 139.552 15.5628 138.632 16.1826C137.719 16.7947 136.575 17.1008 135.198 17.1008C133.018 17.1008 131.406 16.4083 130.359 15.0234C129.533 13.914 129.12 12.5138 129.12 10.8228C129.12 8.80288 129.663 7.22288 130.749 6.08282C131.834 4.93512 133.207 4.36127 134.867 4.36127C136.732 4.36127 138.203 4.9619 139.281 6.16316C140.359 7.35677 140.874 9.18927 140.827 11.6607H132.519C132.542 12.6171 132.81 13.3631 133.321 13.8987C133.833 14.4266 134.47 14.6906 135.233 14.6906C135.752 14.6906 136.189 14.5529 136.543 14.2774C136.897 14.002 137.165 13.5582 137.346 12.9461ZM137.534 9.68661C137.511 8.75315 137.263 8.0454 136.791 7.56336C136.319 7.07367 135.745 6.82883 135.068 6.82883C134.344 6.82883 133.746 7.08515 133.274 7.59779C132.802 8.11043 132.57 8.80671 132.578 9.68661H137.534Z" fill="currentColor"/>
  <path d="M142.94 16.8253V0H146.256V8.92913L150.138 4.63672H154.222L149.938 9.08981L154.528 16.8253H150.953L147.802 11.3508L146.256 12.9231V16.8253H142.94Z" fill="currentColor"/>
  <path d="M156.028 2.98403V0H159.344V2.98403H156.028ZM156.028 16.8253V4.63672H159.344V16.8253H156.028Z" fill="currentColor"/>
  <path d="M169.529 12.9461L172.833 13.4855C172.408 14.6638 171.735 15.5628 170.815 16.1826C169.902 16.7947 168.758 17.1008 167.381 17.1008C165.201 17.1008 163.589 16.4083 162.542 15.0234C161.716 13.914 161.303 12.5138 161.303 10.8228C161.303 8.80288 161.846 7.22288 162.932 6.08282C164.017 4.93512 165.39 4.36127 167.05 4.36127C168.915 4.36127 170.386 4.9619 171.464 6.16316C172.542 7.35677 173.057 9.18927 173.01 11.6607H164.702C164.726 12.6171 164.993 13.3631 165.504 13.8987C166.016 14.4266 166.653 14.6906 167.416 14.6906C167.935 14.6906 168.372 14.5529 168.726 14.2774C169.08 14.002 169.348 13.5582 169.529 12.9461ZM169.717 9.68661C169.694 8.75315 169.446 8.0454 168.974 7.56336C168.502 7.07367 167.928 6.82883 167.251 6.82883C166.527 6.82883 165.929 7.08515 165.457 7.59779C164.985 8.11043 164.753 8.80671 164.761 9.68661H169.717Z" fill="currentColor"/>
  <path d="M178.687 16.8253L173.636 4.63672H177.117L179.477 10.8573L180.162 12.9346C180.343 12.4067 180.457 12.0585 180.504 11.8902C180.614 11.5459 180.732 11.2016 180.858 10.8573L183.242 4.63672H186.652L181.672 16.8253H178.687Z" fill="currentColor"/>
</svg>