<svg width="32" height="32" viewBox="0 0 32 32" fill="none" xmlns="http://www.w3.org/2000/svg">
<g id="Group">
<path id="Vector" d="M24.8889 22C25.1721 22.0003 25.4445 22.0979 25.6504 22.2728C25.8563 22.4478 25.9803 22.687 25.9969 22.9414C26.0135 23.1958 25.9215 23.4464 25.7397 23.6418C25.5579 23.8373 25.3001 23.9629 25.0189 23.993L24.8889 24H7.11111C6.82791 23.9997 6.55552 23.9021 6.34959 23.7272C6.14366 23.5522 6.01974 23.313 6.00314 23.0586C5.98655 22.8042 6.07853 22.5536 6.26029 22.3582C6.44206 22.1627 6.69989 22.0371 6.98111 22.007L7.11111 22H24.8889ZM24.8889 15C25.1836 15 25.4662 15.1054 25.6746 15.2929C25.8829 15.4804 26 15.7348 26 16C26 16.2652 25.8829 16.5196 25.6746 16.7071C25.4662 16.8946 25.1836 17 24.8889 17H7.11111C6.81643 17 6.53381 16.8946 6.32544 16.7071C6.11706 16.5196 6 16.2652 6 16C6 15.7348 6.11706 15.4804 6.32544 15.2929C6.53381 15.1054 6.81643 15 7.11111 15H24.8889ZM24.8889 8C25.1836 8 25.4662 8.10536 25.6746 8.29289C25.8829 8.48043 26 8.73478 26 9C26 9.26522 25.8829 9.51957 25.6746 9.70711C25.4662 9.89464 25.1836 10 24.8889 10H7.11111C6.81643 10 6.53381 9.89464 6.32544 9.70711C6.11706 9.51957 6 9.26522 6 9C6 8.73478 6.11706 8.48043 6.32544 8.29289C6.53381 8.10536 6.81643 8 7.11111 8H24.8889Z" fill="currentColor"/>
</g>
</svg>
