<svg width="40" height="40" viewBox="0 0 40 40" fill="none" xmlns="http://www.w3.org/2000/svg">
<g id="icon">
<path id="vector" d="M17.3672 20L23.8339 13.0224C23.8871 12.9662 23.9292 12.8994 23.9577 12.826C23.9863 12.7526 24.0006 12.674 24 12.5947C23.9994 12.5154 23.9838 12.437 23.9541 12.3641C23.9244 12.2912 23.8813 12.2252 23.8272 12.1699C23.773 12.1146 23.709 12.0711 23.6388 12.042C23.5685 12.0128 23.4935 11.9986 23.418 12.0001C23.3425 12.0016 23.268 12.0188 23.1989 12.0508C23.1298 12.0827 23.0674 12.1287 23.0153 12.1861L16.1618 19.5818C16.058 19.6938 16 19.8438 16 20C16 20.1562 16.058 20.3062 16.1618 20.4182L23.0153 27.8139C23.0674 27.8713 23.1298 27.9173 23.1989 27.9492C23.268 27.9812 23.3425 27.9984 23.418 27.9999C23.4935 28.0014 23.5685 27.9872 23.6388 27.958C23.709 27.9289 23.773 27.8854 23.8272 27.8301C23.8813 27.7748 23.9244 27.7088 23.9541 27.6359C23.9838 27.563 23.9994 27.4846 24 27.4053C24.0006 27.326 23.9863 27.2474 23.9577 27.174C23.9292 27.1006 23.8871 27.0338 23.8339 26.9776L17.3672 20Z" fill="currentColor"/>
</g>
</svg>
