<svg width="17" height="17" viewBox="0 0 17 17" fill="none" xmlns="http://www.w3.org/2000/svg">
<g id="simple-icons:metrodeparis" clip-path="url(#clip0_499_3487)">
<path id="Vector" d="M12.3053 12.2389C12.1707 12.3402 12.012 12.3909 11.8293 12.3909C11.668 12.3909 11.5151 12.3402 11.3707 12.2389C11.2253 12.1371 11.1527 11.9904 11.1527 11.7989V6.59019H11.1373L9.148 10.6282C9.08837 10.758 9.00071 10.873 8.89133 10.9649C8.79489 11.0395 8.66644 11.0769 8.506 11.0769C8.346 11.0769 8.21778 11.0395 8.12133 10.9649C8.01179 10.8731 7.9241 10.7581 7.86467 10.6282L5.87533 6.59085H5.86V11.7982C5.86372 11.8848 5.84484 11.9709 5.80522 12.0481C5.7656 12.1252 5.70659 12.1907 5.634 12.2382C5.49769 12.3355 5.33483 12.3888 5.16733 12.3909C4.98422 12.3909 4.82822 12.3402 4.69933 12.2389C4.57044 12.1371 4.506 11.9904 4.506 11.7989V4.81152C4.506 4.60841 4.57044 4.41885 4.69933 4.24285C4.82733 4.06685 5.05756 3.97885 5.39 3.97885C5.63667 3.97885 5.82689 4.03485 5.96067 4.14685C6.094 4.2593 6.21444 4.42752 6.322 4.65152L8.50667 9.15419H8.52267L10.6913 4.65152C10.798 4.42752 10.9187 4.2593 11.0533 4.14685C11.1867 4.03485 11.3767 3.97885 11.6233 3.97885C11.9558 3.97885 12.186 4.06685 12.314 4.24285C12.4429 4.41974 12.5073 4.60952 12.5073 4.81219V11.7975C12.5073 11.99 12.4402 12.1366 12.306 12.2375L12.3053 12.2389ZM8.484 15.0095C12.256 15.0095 15.3367 11.9162 15.3367 8.12485C15.3367 4.37819 12.268 1.33618 8.484 1.33618C4.70133 1.33618 1.664 4.36019 1.664 8.12485C1.664 11.8515 4.80733 15.0095 8.484 15.0095ZM8.484 16.1729C4.16333 16.1729 0.5 12.4929 0.5 8.12485C0.5 3.71619 4.06 0.172852 8.484 0.172852C12.908 0.172852 16.5 3.73285 16.5 8.12485C16.5 12.5575 12.9 16.1729 8.484 16.1729Z" fill="currentColor"/>
</g>
<defs>
<clipPath id="clip0_499_3487">
<rect width="16" height="16" fill="white" transform="translate(0.5 0.172852)"/>
</clipPath>
</defs>
</svg>
