<svg width="24" height="24" viewBox="0 0 24 24" fill="none" xmlns="http://www.w3.org/2000/svg">
<path d="M20.1892 3C20.7439 3 21.1623 3.57996 20.9385 4.65869L18.2235 19.9117C18.0337 20.9962 17.4839 21.2572 16.7249 20.7526L10.2487 15.0516C10.2236 15.0301 10.2031 15.0018 10.189 14.969C10.1749 14.9363 10.1675 14.9 10.1675 14.8631C10.1675 14.8263 10.1749 14.79 10.189 14.7572C10.2031 14.7244 10.2236 14.6961 10.2487 14.6746L17.7272 6.62476C18.0678 6.26518 17.6542 6.09119 17.2066 6.41597L7.82071 13.4741C7.79225 13.4962 7.75993 13.5103 7.72621 13.5154C7.69249 13.5204 7.65825 13.5162 7.62609 13.5031L3.64112 12.001C2.75557 11.6936 2.75557 10.9687 3.84061 10.4525L19.7853 3.12179C19.912 3.05006 20.0492 3.00868 20.1892 3Z" stroke="currentColor" stroke-width="2" stroke-linecap="round" stroke-linejoin="round"/>
</svg>
