<svg width="24" height="24" viewBox="0 0 24 24" fill="none" xmlns="http://www.w3.org/2000/svg">
<path d="M7.96509 6.202C7.77924 6.17495 7.58973 6.21236 7.42809 6.308H7.41409C7.03909 6.528 6.70109 6.805 6.41309 7.131C6.17309 7.408 6.04309 7.688 6.00909 7.958C5.98909 8.118 6.00309 8.28 6.05009 8.433L6.06809 8.443C6.33809 9.236 6.69009 9.999 7.12009 10.717C7.67454 11.7255 8.35685 12.6582 9.15009 13.492L9.17409 13.526L9.21209 13.554L9.23509 13.581L9.26309 13.605C10.0998 14.4006 11.0347 15.0862 12.0451 15.645C13.2001 16.274 13.9011 16.571 14.3221 16.695V16.701C14.4451 16.739 14.5571 16.756 14.6701 16.756C15.0286 16.7295 15.368 16.5838 15.6341 16.342C15.9591 16.054 16.2341 15.715 16.4481 15.338V15.331C16.6491 14.951 16.5811 14.593 16.2911 14.35C15.7086 13.841 15.0787 13.389 14.4101 13C13.9621 12.757 13.5071 12.904 13.3231 13.15L12.9301 13.646C12.7281 13.892 12.3621 13.858 12.3621 13.858L12.3521 13.864C9.62109 13.167 8.89209 10.402 8.89209 10.402C8.89209 10.402 8.85809 10.026 9.11109 9.834L9.60309 9.438C9.83909 9.246 10.0031 8.792 9.75009 8.344C9.3637 7.67476 8.91254 7.04508 8.40309 6.464C8.29198 6.32725 8.13616 6.23411 7.96309 6.201L7.96509 6.202ZM12.5801 5C12.4475 5 12.3203 5.05268 12.2265 5.14645C12.1328 5.24021 12.0801 5.36739 12.0801 5.5C12.0801 5.63261 12.1328 5.75979 12.2265 5.85355C12.3203 5.94732 12.4475 6 12.5801 6C13.8441 6 14.8941 6.413 15.7251 7.205C16.1521 7.638 16.4851 8.151 16.7031 8.713C16.9221 9.276 17.0221 9.877 16.9961 10.479C16.9905 10.6116 17.0379 10.741 17.1277 10.8387C17.2175 10.9364 17.3425 10.9944 17.4751 11C17.6077 11.0056 17.7371 10.9582 17.8348 10.8684C17.9325 10.7786 17.9905 10.6536 17.9961 10.521C18.0271 9.78049 17.9042 9.04159 17.6351 8.351C17.3648 7.65714 16.955 7.02612 16.4311 6.497L16.4211 6.487C15.3901 5.502 14.0861 5 12.5801 5Z" fill="currentColor"/>
<path d="M12.5449 6.64358C12.4123 6.64358 12.2851 6.69626 12.1914 6.79002C12.0976 6.88379 12.0449 7.01097 12.0449 7.14358C12.0449 7.27619 12.0976 7.40336 12.1914 7.49713C12.2851 7.5909 12.4123 7.64358 12.5449 7.64358H12.5619C13.4739 7.70858 14.1379 8.01258 14.6029 8.51158C15.0799 9.02558 15.3269 9.66458 15.3079 10.4546C15.3049 10.5872 15.3546 10.7156 15.4462 10.8115C15.5378 10.9074 15.6638 10.963 15.7964 10.9661C15.929 10.9691 16.0574 10.9194 16.1533 10.8278C16.2493 10.7362 16.3049 10.6102 16.3079 10.4776C16.3319 9.44058 15.9979 8.54558 15.3359 7.83158V7.82958C14.6589 7.10358 13.7299 6.71958 12.6119 6.64458L12.5949 6.64258L12.5449 6.64358Z" fill="currentColor"/>
<path d="M12.5259 8.31932C12.459 8.31341 12.3915 8.32105 12.3277 8.34178C12.2638 8.36251 12.2047 8.3959 12.154 8.43996C12.1033 8.48401 12.062 8.53784 12.0325 8.59822C12.0031 8.65859 11.9861 8.72428 11.9826 8.79137C11.9791 8.85845 11.9892 8.92555 12.0122 8.98866C12.0352 9.05177 12.0707 9.10959 12.1165 9.15868C12.1624 9.20777 12.2177 9.24712 12.2791 9.27438C12.3405 9.30163 12.4067 9.31624 12.4739 9.31732C12.8919 9.33932 13.1589 9.46532 13.3269 9.63432C13.4959 9.80432 13.6219 10.0773 13.6449 10.5043C13.6461 10.5714 13.6609 10.6376 13.6882 10.6989C13.7156 10.7601 13.755 10.8153 13.8041 10.861C13.8533 10.9067 13.9111 10.9421 13.9742 10.965C14.0372 10.9879 14.1043 10.9979 14.1713 10.9943C14.2383 10.9908 14.3039 10.9737 14.3642 10.9443C14.4245 10.9148 14.4783 10.8735 14.5223 10.8229C14.5663 10.7722 14.5997 10.7132 14.6204 10.6494C14.6411 10.5855 14.6487 10.5182 14.6429 10.4513C14.6109 9.85132 14.4229 9.32132 14.0379 8.93132C13.6509 8.54132 13.1239 8.35132 12.5259 8.31932Z" fill="currentColor"/>
<path fill-rule="evenodd" clip-rule="evenodd" d="M7.06705 2.38406C10.2491 1.67276 13.549 1.67276 16.7311 2.38406L17.0701 2.45906C18.0003 2.66701 18.8546 3.12879 19.5381 3.79308C20.2217 4.45738 20.7076 5.29818 20.9421 6.22206C21.7498 9.40495 21.7498 12.7392 20.9421 15.9221C20.7076 16.8459 20.2217 17.6867 19.5381 18.351C18.8546 19.0153 18.0003 19.4771 17.0701 19.6851L16.7301 19.7601C14.7371 20.2057 12.692 20.3737 10.6531 20.2591L8.00005 22.6331C7.90003 22.7226 7.77781 22.7837 7.64614 22.8099C7.51447 22.8361 7.37818 22.8265 7.2515 22.782C7.12482 22.7376 7.01239 22.6599 6.92594 22.5572C6.8395 22.4545 6.78221 22.3305 6.76005 22.1981L6.32105 19.5761C5.47924 19.3141 4.71866 18.8407 4.11202 18.2009C3.50538 17.5612 3.07295 16.7766 2.85605 15.9221C2.04831 12.7392 2.04831 9.40494 2.85605 6.22206C3.09047 5.29818 3.57645 4.45738 4.25999 3.79308C4.94353 3.12879 5.79786 2.66701 6.72805 2.45906L7.06705 2.38406ZM16.4041 3.84706C13.4373 3.18386 10.3608 3.18386 7.39405 3.84706L7.05405 3.92306C6.39477 4.07071 5.78932 4.39821 5.30493 4.86919C4.82054 5.34016 4.47616 5.93618 4.31005 6.59106C3.56377 9.53178 3.56377 12.6123 4.31005 15.5531C4.47624 16.2081 4.82077 16.8042 5.30535 17.2752C5.78993 17.7461 6.39559 18.0736 7.05505 18.2211L7.14505 18.2411C7.29065 18.2736 7.42322 18.3489 7.52583 18.4572C7.62843 18.5655 7.6964 18.7019 7.72105 18.8491L8.01505 20.6071L9.88705 18.9321C9.96181 18.865 10.0493 18.8136 10.1443 18.7809C10.2393 18.7483 10.3399 18.7351 10.4401 18.7421C12.4391 18.8839 14.4482 18.734 16.4041 18.2971L16.7431 18.2211C17.4025 18.0736 18.0082 17.7461 18.4928 17.2752C18.9773 16.8042 19.3219 16.2081 19.4881 15.5531C20.2341 12.6131 20.2341 9.53206 19.4881 6.59106C19.3219 5.93606 18.9773 5.33995 18.4928 4.86896C18.0082 4.39798 17.4025 4.07055 16.7431 3.92306L16.4041 3.84706Z" fill="currentColor"/>
</svg>
