<svg xmlns="http://www.w3.org/2000/svg" width="160pt" height="160pt" version="1.0" viewBox="0 0 160 160"><path d="M68.5 23.7c-1.4 1.6-2.8 3.8-3.1 5-.4 1.3-.7 2.3-.8 2.3 0 0-1.7-.4-3.6-1-5.4-1.5-7.3-.5-6.8 3.7.4 2.9 0 3.6-1.9 4.4-3.2 1.2-3.8 3.4-1.9 6.4 3.4 5.2 5.8 5.9 21.2 6.1 15.6.2 18.4-.6 22-6 1.9-3.1 1.3-5.3-1.9-6.5-1.9-.8-2.3-1.5-1.9-4.4.5-4.2-1.4-5.2-6.8-3.7-4.3 1.2-4 1.3-4-.5 0-1.6-5.7-8.5-7.1-8.5-.4 0-2 1.2-3.4 2.7zm6 2.5c3.1 4.4 3.8 9.7 2 14.4-2.2 5.8-4 7.2-6.4 5-4.3-3.9-4.6-13.2-.6-19.2 1.9-3 3-3 5-.2zm-12.8 6.4c1.6.5 2.2 1.5 2.5 4.7.3 2.3.8 5 1.2 5.9 1.3 3-1.3 2.1-5-1.6-2.4-2.4-3.4-4.3-3.4-6.5 0-3.2.7-3.6 4.7-2.5zM87 34.2c0 3-3.3 8.4-6 9.8-2.8 1.5-3.3.9-2-2.4.5-1.5 1-4 1-5.6 0-2.8 1.1-3.6 5.3-3.9 1.1-.1 1.7.6 1.7 2.1zm-29.5 8.2c.9 1.3 3.3 3.2 5.3 4.2 3.4 1.7 3.5 1.9 1.4 2.2-4.6.7-13.4-5.1-11.7-7.7 1.1-1.8 3.4-1.2 5 1.3zm34-1.3c1.7 2.6-7.1 8.4-11.7 7.7-2.1-.3-1.9-.5 1.5-2.2 2.1-1.1 4.5-3 5.4-4.2 1.6-2.5 3.7-3.1 4.8-1.3z"/><path d="M71 41c0 1.6.5 3 1 3 .6 0 1-1.4 1-3 0-1.7-.4-3-1-3-.5 0-1 1.3-1 3zM105.5 37.2c-5.1 2.9-6 8.4-2 12.3C105.9 52 106 52 126 52c17.1 0 20-.2 20-1.5s-2.9-1.5-19.8-1.5c-21.2 0-22.2-.2-22.2-5 0-4.7 1.1-5 20.8-5 16.9 0 18.3.1 18 1.7-.3 1.6-2 1.8-17.1 2.1-10 .1-16.7.6-16.7 1.2 0 1.5 34.3 1.3 35.8-.2 1.7-1.7 1.5-4.4-.4-6.2-1.3-1.3-4.5-1.6-19.2-1.6-11.4.1-18.4.5-19.7 1.2zM52.7 56.2c-4 3.1-3.6 11.5.8 13.2 2.8 1 40.5.7 40.5-.4 0-.6-7.1-1-19.3-1-17.5 0-19.6-.2-21-1.8-2.4-2.6-2.1-5.9.7-7.7 3.4-2.2 37.1-1.8 37.1.5 0 1.3-2.8 1.6-16.8 2-9.9.3-16.8.9-17 1.5-.3 1.4 31.7 1.9 34.3.5 2.2-1.2 2.7-4.9.8-6.8-1.7-1.7-37.8-1.7-40.1 0zM103.3 55.7c-2.1.8-1.6 6.1.6 7.3 1.1.6 8.9 1 18 1 13.5 0 16.1-.2 16.1-1.5 0-1.2-2.8-1.5-16.7-1.7-14.2-.3-16.8-.5-16.8-1.8s2.8-1.5 17.7-1.8c16.7-.2 17.9-.1 19.8 1.8 2.5 2.5 2.5 4.5 0 7-1.9 1.9-3.3 2-21.5 2-12.3 0-19.5.4-19.5 1s7.5 1 20.5 1c19.2 0 20.6-.1 22.5-2 1.2-1.2 2-3.3 2-5.5s-.8-4.3-2-5.5c-1.9-1.9-3.3-2-20.7-1.9-10.4 0-19.4.3-20 .6zM3.4 76.4C-4.3 84.1 1.6 95 13.5 95H18v44h11.9l.3-8.1.3-8 24.7-14L80 95l24.7 13.9 24.8 14 .3 8.1.3 8.1 5.7-.3 5.7-.3.3-21.8.2-21.7h4.6c7.7 0 13.4-4.7 13.4-11.2 0-3.3-3.6-8.7-6.6-9.8-1.5-.6-30.2-1-74.6-1h-72l-3.4 3.4zm151 1.5c3.3 3.1 3.5 8.5.4 11.8l-2.1 2.3H7.6l-2.3-2.2C3.7 88.3 3 86.5 3 84.1c.1-4.4 1.9-6.9 5.7-8.1 1.5-.5 34.4-.8 73-.7l70.1.2 2.6 2.4zM27 116v21h-6V95h6v21zm46.9-20.6c-.4.4-37.6 21.3-41.6 23.5l-2.3 1.2V95h22.2c12.2 0 21.9.2 21.7.4zm56.1 12.1v12.6l-2.2-1.2c-4.7-2.5-41.3-23.1-41.7-23.5-.2-.2 9.5-.4 21.7-.4H130v12.5zm9 8.5v21h-6V95h6v21z"/><path d="M12 87.5c0 1.3 1.5 1.5 10.8 1.3 6.3-.2 10.7-.7 10.7-1.3 0-.6-4.4-1.1-10.7-1.3-9.3-.2-10.8 0-10.8 1.3zM39.7 86.6c-1.1 1.2.3 2.4 2.9 2.4 1.5 0 2.4-.6 2.4-1.5 0-1.5-4-2.1-5.3-.9z"/></svg>