<svg xmlns="http://www.w3.org/2000/svg" width="213.3333333" height="213.3333333" version="1.0" viewBox="0 0 160 160"><path d="M73.1 30.6c-2.8 3.1-6.3 7.6-7.7 10C64 43 62.5 45 62.1 45c-.5 0-3.9-2-7.6-4.5-7.7-5-16.1-8.3-17.6-6.8-1.5 1.5-5.6 14.3-6.4 19.7-.7 4.5-.9 4.8-3.4 4.2-5.8-1.3-19.7-2.6-21.9-2.1C3.1 56 3 56.6 3 64.2c0 31.9 24.3 61.8 56.3 69.3 8.8 2.1 33 2 41.6-.1 31.6-7.8 54.4-35.2 55.9-67.1.5-10.1.4-10.2-2-10.8-2.2-.6-14.3.6-21.3 2l-3 .7-1.7-7.9c-1.9-9.4-5.2-17.3-7.1-17.3-2.4 0-11.9 4.5-17.6 8.4-2.9 2-5.7 3.6-6.1 3.6-.4 0-2-2-3.4-4.4C91 34.4 82.2 25 80 25c-1 0-4.1 2.5-6.9 5.6zM85 35.7c8.9 10.3 16 29.7 16 43.8 0 15.2-6.9 34.2-16.4 45-4 4.5-4.5 4.8-6.1 3.5-3.4-2.8-9.8-12.3-13-19.4C56.3 88.9 57.1 67 67.6 47 71 40.5 78.4 31 80 31c.5 0 2.7 2.1 5 4.7zm-37.1 6.8c3.6 2 7.8 4.6 9.3 5.8l2.8 2.3-2 5.7c-1.1 3.2-2.3 7.8-2.7 10.2-.3 2.5-.8 4.5-1 4.5-.2 0-1.9-1.1-3.6-2.4-1.8-1.3-6-3.8-9.4-5.5-5.4-2.7-6.3-3.5-6.3-5.8 0-4 4.1-18.3 5.2-18.3.6 0 4 1.6 7.7 3.5zm74.3 2.2c.9 2.8 2 7.3 2.4 10.1l.6 5.1-6.3 3.1c-3.5 1.8-7.8 4.3-9.6 5.6-1.7 1.3-3.4 2.4-3.6 2.4-.2 0-.7-2-1-4.5-.4-2.4-1.6-7-2.7-10.2l-2-5.7 2.8-2.3c3.6-3 15.4-9.3 16.7-9 .6.2 1.8 2.6 2.7 5.4zM26.8 63.1c8.3 2.2 15.6 5.6 22.3 10.5l4.6 3.3.6 8.3c1 13.7 7 29.7 15.1 39.8l3.6 4.5-2.9.3c-4.5.5-15.9-2.6-23.6-6.3C24.2 112.7 8.1 88.5 8 65.7V60l5.8.6c3.1.3 9 1.4 13 2.5zM152 65.8c0 20.3-14 43.3-33.3 55-7.2 4.4-18 8.1-25.8 8.9l-6.2.6 4.6-6.5c8.7-12.2 13.3-24.8 14.4-39.1l.6-7.7 4.6-3.4c9.1-6.6 20.2-11.1 31.3-12.5 10.6-1.4 9.8-1.8 9.8 4.7z"/></svg>