<svg xmlns="http://www.w3.org/2000/svg" width="160pt" height="160pt" version="1.0" viewBox="0 0 160 160"><path d="M46 22.1c-1.4.6-5 1.5-8 2.1-7 1.3-12.3 4-14.9 7.7-1.2 1.6-2.1 3.2-2.1 3.5 0 .4-1.1 1.9-2.5 3.4C10.7 47 9.1 56 13.4 67.5l2.6 7-2.8 1.9c-1.5 1.1-5.1 4.4-8.1 7.3C.3 88.4-.2 89.3.4 92.1c.8 4.1 4.5 9 10.4 13.7l4.7 3.7-1.8 5.5c-2.2 6.6-3.2 14.8-2.3 18.4 2.5 9.9 24.3 6.5 59.6-9.3 11.1-5 11.6-5.1 16.5-4.1 13.5 2.7 46.6 3.8 65 2.1 6.1-.5 7-.9 7-2.6 0-1.9-.8-2-29.5-2.1-22.9 0-31.6-.4-38.9-1.8l-9.3-1.6-8.2 3.5c-30.1 13.3-48.9 18.6-56 15.9-3.2-1.2-1.5-11.8 4.3-26.3 1.9-4.7 2-5.6.8-6.8-1.2-1.2-1.6-1.2-3 .1-.8.9-1.7 2.1-2 2.8-.5 1.6-9.1-5.5-11.5-9.4-1.5-2.6-1.5-2.8.8-5.4 3.5-3.7 10-8.7 10.6-8.2.2.3 0 2.4-.5 4.7-1.2 5.4-.5 7.8 2.8 9.5 1.5.8 3.9 3.9 5.6 7.3 3.3 6.2 6.1 7.7 10.5 5.3 2-1.1 2.1-1 1.4 2.5-.5 2.6-.3 4 .6 4.5 1.7 1 9.7-2 17-6.5 9.2-5.6 18-16.3 16.6-20.1-.9-2.4-3.5-1.6-5.1 1.6-1.2 2.3-2.2 3-4.4 3-1.6 0-4.3.3-6 .6-2.5.5-3.1 1.1-2.9 2.8.2 1.7.9 2.1 3.8 1.9l3.5-.1-3.2 2.7c-3.2 2.7-13.4 8.4-14 7.8-1-1.1 2.6-8.8 6.3-13.3C53.1 90 54 88.1 54 85c0-4.5-2.4-7.7-4.5-6-.8.7-1.1 2.4-.8 4.8.5 3.5.1 4.1-7.3 11.5-4.3 4.2-8.3 7.7-9 7.7-.6 0-1.9-2-2.8-4.5-1-2.4-3.1-5.6-4.8-7-2.8-2.3-3-2.9-2.4-6.9.5-3.4 0-6.2-2.4-13.1-1.6-4.9-3-9-3-9.2 0-.3 1-.1 2.3.3 1.2.5 10.5.9 20.7 1 10.2.1 19.9.3 21.5.5 2.4.3 3 0 3-1.6 0-3.5-7-4.7-24.3-4.2-17.2.6-21.8-.2-23.2-3.9-1.1-2.9 1.3-8.5 5-11.9 1.2-1.1 3.1-3.7 4.2-5.8 1.3-2.7 3.2-4.4 6.1-5.8 5.7-2.5 7.4-2.4 11.3 1.1 1.9 1.6 6.3 3.8 9.9 4.9 8.8 2.7 12.4 4.7 13.7 7.7 1.5 3.2.7 3.8-3.9 2.5-2.1-.6-8.7-1.8-14.8-2.6-6-.9-12.9-2.2-15.3-3.1-4.6-1.7-7.2-1.3-7.2 1.1 0 2.4 6.7 4.6 20.5 6.6 14.4 2.1 21 4.1 22.5 6.9 1.4 2.7 1.3 3.3-1.6 7.5-3 4.5-2.6 5.9 2 8.2 4.7 2.2 12.1.8 12.1-2.2 0-1.8-.6-2-4.9-1.7-4.4.3-4.8.1-4.1-1.5 2.2-5.4 2.6-8.6 1.5-11.4-.7-1.5-1.3-5-1.4-7.8-.2-7.5-3.6-10.4-17.8-15-7.7-2.6-10.1-4.5-6.6-5.5 6.9-1.8 13.8.6 15.3 5.4.4 1.1 1.5 2 2.6 2 4.6 0 .8-8.4-5.1-11.5-3.3-1.7-11.2-1.9-15-.4z"/><path d="M134.3 43.2C115.7 62 112 66.1 111.5 69.1c-.5 2.5-2.1 5-5.2 8l-4.6 4.4 3.3-4.7c3.1-4.5 3.3-6.8.6-6.8-.7 0-4.1 2.3-7.5 5-6.6 5.3-13.9 9.5-14.8 8.6-.3-.3.6-2.4 2-4.8 2.7-4.6 6.3-7.6 13.9-11.8 3.9-2.1 6.9-5.7 18.4-21.5 7.6-10.5 13.8-19.9 13.8-21 .1-1.1-.6-2.1-1.5-2.3-1.1-.2-5.9 5.8-15.5 19.2C103.9 56.1 99.7 61.2 97 62.5c-6.4 3.1-12.8 8.5-15.8 13.3-4.1 6.6-4.7 9.7-2.3 12.1 2.3 2.3 5.4 1.8 12.7-2.3l4.6-2.5 2.8 2c1.9 1.5 3.3 1.8 4.4 1.2 3.3-1.8 11.6-10.6 12.2-12.9.6-2.2 1-2.3 10.7-2.6 9.4-.3 10.2-.5 10.2-2.3 0-1.8-.8-2-8.9-2.3l-9-.3 20.8-20.8c15-15 20.7-21.4 20.3-22.5-.4-.9-1.2-1.6-1.9-1.6s-11.3 10-23.5 22.2z"/><path d="M145.7 64.8 135 74.7l-5.9-.1c-5.4-.1-6.4.2-12.8 4.7-3.9 2.6-7.8 5.6-8.8 6.7-2.4 2.6-2.2 6.7.4 9.3 1.9 1.9 3.3 2.2 11.4 2.2 10.3-.1 12.6-.9 28.2-10.4 10.4-6.4 13-8.5 12.1-9.9-1.3-2.2-4-1.2-13.6 4.8-13.2 8.2-16.9 9.9-23.8 10.6-7 .8-11.2 0-11.2-2.1 0-.8 3-3.6 6.7-6.2 6.5-4.6 7-4.8 13-4.6l6.1.2 11.4-10.5c6.2-5.8 11.3-11.3 11.3-12.2 0-3.8-3.6-1.8-13.8 7.6z"/></svg>